G04 Filename: C:\Software\Gccam4_1_4\mask_1 *
G04 Creator: GC-CAM (TM) 4.1.4  Mon Sep 15 15:35:20 2014 *
G04 This file contains layer(s): *
G04 Layer 4: (C:\WORKSHANE\DIRARARE_MATRIXDRIVER.MIX) *
%FSLAX35Y35*%
G04 Units: mm   *
%MOMM*%
G71*
%SFA1.00000B1.00000*%
%OFA0.00000B0.00000*%
G75*
%AD*%
G04 D940 (position 26 of UNTITLED):1.249680 Round     *
%ADD940C,1.249680*%
G04 D933 (position 27 of UNTITLED):0.759460X2.359660 Rectangle *
%ADD933R,0.759460X2.359660*%
G04 D934 (position 28 of UNTITLED):0.749300X1.651000 Rectangle *
%ADD934R,0.749300X1.651000*%
G04 D935 (position 29 of UNTITLED):1.953260X1.750060 Rectangle *
%ADD935R,1.953260X1.750060*%
G04 D936 (position 30 of UNTITLED):1.950720X1.750060 Rectangle *
%ADD936R,1.950720X1.750060*%
G04 D937 (position 31 of UNTITLED):0.810260X2.181860 Rectangle *
%ADD937R,0.810260X2.181860*%
G04 D938 (position 32 of UNTITLED):Custom    "OC8,0.0610" *
%AMMa01_32*
4,1,8,0.774698,0.320891,
0.320891,0.774698,-0.320891,0.774698,-0.774698,0.320891,-0.774698,-0.320891,
-0.320891,-0.774698,0.320891,-0.774698,0.774698,-0.320891,0.774698,0.320891,0*
*%
%ADD938Ma01_32*%
G04 D939 (position 33 of UNTITLED):1.150620X1.549400 Rectangle *
%ADD939R,1.150620X1.549400*%
G04 D18 (position 34 of UNTITLED):1.567180 Round     *
%ADD18C,1.567180*%
G04 D19 (position 35 of UNTITLED):2.148840 Round     *
%ADD19C,2.148840*%
G04 D20 (position 36 of UNTITLED):2.148840 Square    *
%ADD20R,2.148840X2.148840*%
G04 D21 (position 37 of UNTITLED):Custom    "OC8,0.0617" *
%AMMa01_37*
4,1,8,0.783588,0.324573,
0.324573,0.783588,-0.324573,0.783588,-0.783588,0.324573,-0.783588,-0.324573,
-0.324573,-0.783588,0.324573,-0.783588,0.783588,-0.324573,0.783588,0.324573,0*
*%
%ADD21Ma01_37*%
G04 D22 (position 38 of UNTITLED):5.549900X6.350000 Rectangle *
%ADD22R,5.549900X6.350000*%
G04 D23 (position 39 of UNTITLED):1.150620X1.750060 Rectangle *
%ADD23R,1.150620X1.750060*%
G04 D24 (position 40 of UNTITLED):1.750060X1.950720 Rectangle *
%ADD24R,1.750060X1.950720*%
G04 D25 (position 41 of UNTITLED):2.049780 Square    *
%ADD25R,2.049780X2.049780*%
G04 D26 (position 42 of UNTITLED):0.599440X1.000760 Rectangle *
%ADD26R,0.599440X1.000760*%
G04 D27 (position 43 of UNTITLED):3.401060X0.911860 Rectangle *
%ADD27R,3.401060X0.911860*%
G04 D28 (position 44 of UNTITLED):5.483860X2.080260 Rectangle *
%ADD28R,5.483860X2.080260*%
G04 D29 (position 45 of UNTITLED):2.049780 Round     *
%ADD29C,2.049780*%
G04 D30 (position 46 of UNTITLED):1.229360 Round     *
%ADD30C,1.229360*%
G04 D31 (position 47 of UNTITLED):Custom    "OC8,0.0484" *
%AMMa01_47*
4,1,8,0.614679,0.254608,
0.254608,0.614679,-0.254608,0.614679,-0.614679,0.254608,-0.614679,-0.254608,
-0.254608,-0.614679,0.254608,-0.614679,0.614679,-0.254608,0.614679,0.254608,0*
*%
%ADD31Ma01_47*%
G04 D32 (position 48 of UNTITLED):1.049020 Round     *
%ADD32C,1.049020*%
G04 D942 (position 49 of UNTITLED):0.100076 Round     *
%ADD942C,0.100076*%
%IPPOS*%
G04 Layer 4: (C:\WORKSHANE\DIRARARE_MATRIXDRIVER.MIX) *
%LN(04)(C:\WORKSHANE\DIRARARE_MATRIXDRIVER.MIX)*%
%LPD*%
X0Y0D02*
D18*
X-10872490Y-9421134D02*
Y-9562866D01*
X-11126490D02*
Y-9421134D01*
X-11380490D02*
Y-9562866D01*
X-11761490D02*
Y-9421134D01*
X-12015490D02*
Y-9562866D01*
X-12269490D02*
Y-9421134D01*
D942*
X-14999990Y-10000000D02*
X-10000000D01*
Y-5000010*
X-14999990*
Y-10000000*
D940*
X-14750054Y-5249946D03*
X-10249936Y-9750064D03*
Y-5249946D03*
X-14750054Y-9750064D03*
D933*
X-14428490Y-8876050D03*
X-14301490D03*
X-14174490D03*
X-14047490D03*
X-13920490D03*
X-13793490D03*
X-13666490D03*
X-13539490D03*
X-13412490D03*
X-13285490D03*
X-13412490Y-7948950D03*
X-13285490Y-7951490D03*
X-13539490Y-7948950D03*
X-13666490D03*
X-13793490D03*
X-13920490D03*
X-14047490D03*
X-14174490D03*
X-14301490D03*
X-14428490D03*
D934*
X-11634490Y-9005082D03*
Y-8454918D03*
X-11761490Y-9005082D03*
X-11507490D03*
X-11380490D03*
X-11761490Y-8454918D03*
X-11507490D03*
X-11380490D03*
D935*
X-12015490Y-8460760D03*
Y-8745240D03*
D936*
X-14301490Y-9631954D03*
Y-9352046D03*
X-12523490Y-9631954D03*
Y-9352046D03*
X-14745990Y-8869954D03*
Y-8590046D03*
D937*
X-11951990Y-7533660D03*
Y-8148340D03*
X-12078990Y-7533660D03*
X-12205990D03*
X-12078990Y-8148340D03*
X-12205990D03*
X-12332990Y-7533660D03*
Y-8148340D03*
X-12459990Y-7533660D03*
Y-8148340D03*
X-12586990Y-7533660D03*
X-12713990D03*
X-12586990Y-8148340D03*
X-12713990D03*
X-12840990Y-7533660D03*
Y-8148340D03*
X-11888490Y-6819920D03*
X-11761490D03*
X-11634490D03*
X-11507490D03*
X-11380490D03*
X-11253490D03*
X-11126490D03*
X-10999490D03*
Y-5814080D03*
X-11126490D03*
X-11253490D03*
X-11380490D03*
X-11507490D03*
X-11634490D03*
X-11761490D03*
X-11888490D03*
X-10872490Y-6819920D03*
Y-5814080D03*
D938*
X-14174490Y-5777250D03*
Y-5523250D03*
X-13920490Y-5777250D03*
Y-5523250D03*
X-13666490Y-5777250D03*
Y-5523250D03*
X-13412490Y-5777250D03*
Y-5523250D03*
X-13158490Y-5777250D03*
Y-5523250D03*
X-12904490Y-5777250D03*
Y-5523250D03*
X-12650490Y-5777250D03*
Y-5523250D03*
X-12396490Y-5777250D03*
Y-5523250D03*
D939*
X-14174490Y-6651518D03*
X-14079494Y-6871482D03*
X-14269486D03*
X-13793490Y-6651518D03*
X-13698494Y-6871482D03*
X-13888486D03*
X-13412490Y-6651518D03*
X-13317494Y-6871482D03*
X-13507486D03*
X-13412490Y-6175268D03*
X-13317494Y-6395232D03*
X-13507486D03*
X-12999740Y-6175268D03*
X-12904744Y-6395232D03*
X-13094736D03*
X-12904490Y-6651518D03*
X-12809494Y-6871482D03*
X-12999486D03*
X-12523490Y-6651518D03*
X-12428494Y-6871482D03*
X-12618486D03*
X-12142490Y-6651518D03*
X-12047494Y-6871482D03*
X-12237486D03*
D19*
X-14827270Y-6571000D03*
D20*
Y-7333000D03*
Y-7079000D03*
X-14828032Y-7589540D03*
X-14827270Y-7841000D03*
D21*
X-12777490Y-8920500D03*
Y-8666500D03*
X-12523490Y-8920500D03*
Y-8666500D03*
X-12269490Y-8920500D03*
Y-8666500D03*
D22*
X-10364490Y-6067064D03*
D23*
X-10592582Y-6797060D03*
X-10136398D03*
D24*
X-10631444Y-8222000D03*
X-10351536D03*
D25*
X-14832350Y-6825000D03*
D26*
X-14167378Y-6270010D03*
X-14087368D03*
X-14007612D03*
X-13927602D03*
Y-6109990D03*
X-14007612D03*
X-14087368D03*
X-14167378D03*
X-12389378Y-6270010D03*
X-12309368D03*
X-12229612D03*
X-12149602D03*
Y-6109990D03*
X-12229612D03*
X-12309368D03*
X-12389378D03*
X-14294378Y-7413010D03*
X-14214368D03*
X-14134612D03*
X-14054602D03*
Y-7252990D03*
X-14134612D03*
X-14214368D03*
X-14294378D03*
X-13913378Y-7540010D03*
X-13833368D03*
X-13753612D03*
X-13673602D03*
Y-7379990D03*
X-13753612D03*
X-13833368D03*
X-13913378D03*
D27*
X-10923290Y-8793500D03*
X-10440690D03*
D28*
X-12929890Y-9492000D03*
X-13895090D03*
D29*
X-10981964Y-7523500D03*
X-10382016D03*
X-10681990Y-7053600D03*
D30*
X-14364990Y-6571000D03*
X-14174490Y-8190250D03*
X-10491490Y-7904500D03*
X-11126490Y-8031500D03*
X-14682490Y-8095000D03*
X-14333240Y-6063000D03*
X-12840990Y-7269500D03*
X-13031490Y-8952250D03*
X-10491490Y-9492000D03*
X-13920490Y-8222000D03*
X-10427990Y-6793250D03*
X-11031240Y-6380500D03*
X-12078990Y-5650250D03*
X-11761490Y-5491500D03*
X-10364490Y-5586750D03*
X-14745990Y-9206250D03*
X-10935990Y-8095000D03*
X-12586990Y-6380500D03*
X-11443990Y-7587000D03*
X-13094990Y-7904500D03*
X-14618990Y-7460000D03*
Y-6952000D03*
Y-7206000D03*
X-13983990Y-6634500D03*
X-11602740Y-6031250D03*
X-10142240Y-7142500D03*
X-11062990Y-8476000D03*
X-11983740Y-9047500D03*
X-14110990Y-8634750D03*
X-13190240Y-6190000D03*
X-13094990Y-8285500D03*
X-13539490Y-8539500D03*
X-11634490Y-8031500D03*
X-12840990Y-7904500D03*
X-12142490Y-7301250D03*
X-11888490Y-6380500D03*
X-11761490Y-7269500D03*
X-11697990Y-6317000D03*
X-11634490Y-7555250D03*
X-11507490Y-6380500D03*
X-11380490Y-7015500D03*
X-11189990Y-8666500D03*
X-13793490D03*
X-13348990Y-8476000D03*
X-12269490D03*
X-10999490Y-7206000D03*
X-10808990Y-7696474D03*
X-13380740Y-7079000D03*
X-13666490Y-6317000D03*
X-13031490Y-7460000D03*
X-13094990Y-6602750D03*
D31*
X-12459990Y-7301250D03*
X-10205740Y-7809250D03*
X-10745490Y-7333000D03*
X-11507490Y-7269500D03*
X-11316990Y-8031500D03*
X-10935990Y-8285500D03*
D32*
X-13190240Y-6983750D03*
X-12713990Y-6634500D03*
M02*
